<svg width="121" height="121" viewBox="0 0 121 121" fill="none" xmlns="http://www.w3.org/2000/svg">
<path d="M60.5002 9.12164C37.2077 9.12164 18.5117 17.207 4.44221 28.2273C0.984886 30.9352 0.289136 35.7379 2.41269 39.4536L5.97387 45.6858C8.85594 50.7293 15.5301 51.7472 20.1243 48.4915C30.9558 40.8151 44.7685 34.6252 60.5002 34.6252C76.2318 34.6252 90.0442 40.8151 100.876 48.4915C105.47 51.7472 112.144 50.7293 115.026 45.6858L118.588 39.4536C120.711 35.7379 120.015 30.9352 116.558 28.2273C102.488 17.207 83.7925 9.12164 60.5002 9.12164Z" fill="#002255"/>
<path d="M60.3971 86.3749C53.3559 86.3749 47.6495 92.0843 47.6505 99.1265C47.6516 106.169 53.36 111.878 60.4012 111.878C67.4424 111.878 73.149 106.169 73.148 99.1265C73.1468 92.0843 67.4386 86.3749 60.3971 86.3749Z" fill="#002255"/>
<path d="M60.501 49.1769C46.1204 49.1769 36.1535 53.1601 27.8433 59.4519C24.1612 62.2396 23.6961 67.361 26.1572 71.053L29.6447 76.2837C32.3531 80.3465 37.9138 80.8404 41.8042 78.434C46.6785 75.4191 53.1472 72.8365 60.501 72.8365C67.8548 72.8365 74.3232 75.4191 79.1978 78.434C83.0877 80.8404 88.6489 80.3465 91.3572 76.2837L94.8443 71.053C97.3059 67.361 96.8406 62.2396 93.1584 59.4519C84.8479 53.1601 74.8816 49.1769 60.501 49.1769Z" fill="#002255"/>
</svg>
