<svg width="121" height="121" viewBox="0 0 121 121" fill="none" xmlns="http://www.w3.org/2000/svg">
<g clip-path="url(#clip0_3_177)">
<path fill-rule="evenodd" clip-rule="evenodd" d="M68.0323 2C65.1535 2 62.82 4.33354 62.82 7.21233V25.4553C62.82 28.3341 65.1535 30.6677 68.0323 30.6677C70.9111 30.6677 73.2447 28.3341 73.2447 25.4553V7.21233C73.2447 4.33354 70.9111 2 68.0323 2ZM36.2885 119.982C41.3012 120.342 47.4656 120.58 55.0016 120.58C62.5377 120.58 68.7021 120.342 73.7148 119.982C86.0182 119.101 94.6687 110.904 97.1122 99.7307H100.954C110.869 99.7307 120.49 92.8188 121.235 81.6906C121.372 79.6386 121.459 77.388 121.459 74.9723C121.459 72.5566 121.372 70.306 121.235 68.2538C120.49 57.1258 110.869 50.214 100.954 50.214H96.6854C95.6808 45.706 92.1529 42.2401 87.3613 41.5302C81.8236 40.7097 71.8637 39.7893 55.0016 39.7893C38.1395 39.7893 28.1795 40.7097 22.6417 41.5302C17.3681 42.3114 13.6249 46.4314 13.0923 51.6047C12.5679 56.6988 12 65.5797 12 80.1847C12 85.6349 12.0792 90.2519 12.2054 94.1511C12.6572 108.091 22.0145 118.96 36.2885 119.982ZM97.6927 63.2447C97.8787 67.7706 98.003 73.3509 98.003 80.1847C98.003 82.5043 97.9889 84.6733 97.9627 86.7H100.954C105.282 86.7 108.027 83.9049 108.233 80.8204C108.353 79.0379 108.428 77.078 108.428 74.9723C108.428 72.8664 108.353 70.9067 108.233 69.124C108.027 66.0398 105.282 63.2447 100.954 63.2447H97.6927ZM41.9709 12.4247C41.9709 9.54586 44.3045 7.21233 47.183 7.21233C50.0616 7.21233 52.3953 9.54586 52.3953 12.4247V30.6677C52.3953 33.5465 50.0618 35.88 47.183 35.88C44.3042 35.88 41.9709 33.5465 41.9709 30.6677V12.4247Z" fill="#002255"/>
</g>
<defs>
<clipPath id="clip0_3_177">
<rect width="121" height="121" fill="white"/>
</clipPath>
</defs>
</svg>
